<svg data-name="Layer 1" xmlns="http://www.w3.org/2000/svg" xmlns:xlink="http://www.w3.org/1999/xlink" viewBox="0 0 57.27 87.37"><defs><clipPath id="b" transform="translate(-28 -13)"><path d="M28 64c0 .35 0 .69.06 1 .02-.24 0-.6-.06-1z" fill="none"/></clipPath><linearGradient id="c" x1="-427.13" y1="470.07" x2="-426.13" y2="470.07" gradientTransform="matrix(57.48 0 0 -57.48 24550.31 27069.61)" gradientUnits="userSpaceOnUse"><stop offset="0" stop-color="#00984a"/><stop offset=".07" stop-color="#0c9c49"/><stop offset=".2" stop-color="#2ba647"/><stop offset=".36" stop-color="#5db743"/><stop offset=".5" stop-color="#8cc63f"/><stop offset=".71" stop-color="#50b543"/><stop offset="1" stop-color="#009d48"/></linearGradient><clipPath id="d" transform="translate(-28 -13)"><path d="M28.18 66.06c1.3 13.88 9.77 25.25 26.91 30.07a9.13 9.13 0 0 0 1.86.29 10.5 10.5 0 0 0 1.95-.29c16.9-4.75 24.8-17.22 26.17-30.07z" fill="none"/></clipPath><linearGradient id="e" x1="-427.14" y1="470.04" x2="-426.14" y2="470.04" gradientTransform="matrix(57.28 0 0 -57.28 24464.73 26990.67)" gradientUnits="userSpaceOnUse"><stop offset="0" stop-color="#00984a"/><stop offset=".5" stop-color="#72bf44"/><stop offset=".55" stop-color="#66bb45"/><stop offset=".86" stop-color="#1da248"/><stop offset="1" stop-color="#00984a"/></linearGradient><clipPath id="f" transform="translate(-28 -13)"><path d="M58 92.92l.67-1.73C51 85.73 49.22 78.76 49.53 70a8.15 8.15 0 0 1-4.7-1.74C43.73 79.7 48.54 87.45 58 92.92" fill="none"/></clipPath><linearGradient id="g" x1="-451.18" y1="458.9" x2="-450.18" y2="458.9" gradientTransform="matrix(11.41 0 0 -11.41 5192.32 5314.89)" gradientUnits="userSpaceOnUse"><stop offset="0" stop-color="#e5a812"/><stop offset=".08" stop-color="#e5a812"/><stop offset=".16" stop-color="#e9b10e"/><stop offset=".41" stop-color="#f2c904"/><stop offset=".56" stop-color="#f6d200"/><stop offset=".71" stop-color="#d7b628"/><stop offset=".83" stop-color="#c2a542"/><stop offset=".9" stop-color="#bb9e4c"/><stop offset="1" stop-color="#bb9e4c"/></linearGradient><clipPath id="h" transform="translate(-28 -13)"><path d="M44.28 65.58c3.61 3.27 7.71 2.83 12.55 1.29a14 14 0 0 1 11.83.88l.61-1.69c-2.86-3.06-8.55-3.74-12-2.61-3.66 1.2-7.63 1-9.82-1.22a6 6 0 0 0-3.19 3.35" fill="none"/></clipPath><linearGradient id="a" x1="-428.6" y1="462.34" x2="-427.6" y2="462.34" gradientTransform="matrix(24.99 0 0 -24.99 10727.55 11606.85)" gradientUnits="userSpaceOnUse"><stop offset="0" stop-color="#e5a812"/><stop offset=".14" stop-color="#e5a812"/><stop offset=".22" stop-color="#e9b10e"/><stop offset=".49" stop-color="#f2c904"/><stop offset=".65" stop-color="#f6d200"/><stop offset=".8" stop-color="#d7b628"/><stop offset=".93" stop-color="#c2a542"/><stop offset="1" stop-color="#bb9e4c"/></linearGradient><clipPath id="i" transform="translate(-28 -13)"><path d="M57.77 88.55a21.55 21.55 0 0 0 3.08 1.9l7.55-21.81a11.82 11.82 0 0 0-1.3-.52z" fill="none"/></clipPath><linearGradient id="j" x1="-432.12" y1="443.89" x2="-431.12" y2="443.89" gradientTransform="matrix(10.62 0 0 -10.62 4619.78 4781.28)" xlink:href="#a"/><clipPath id="k" transform="translate(-28 -13)"><path d="M54.16 84.39a12.68 12.68 0 0 0 2.28 2.92l10.1-19.36a11 11 0 0 0-1.34-.29z" fill="none"/></clipPath><linearGradient id="l" x1="-431.25" y1="448.44" x2="-430.25" y2="448.44" gradientTransform="matrix(12.38 0 0 -12.38 5364.46 5615.6)" xlink:href="#a"/></defs><path d="M57.25.2S25.9-2.47 0 11.58v11.19h57.27z" fill="#0089cf"/><g clip-path="url(#b)"><path fill="url(#c)" d="M.04 51.04H.1v1.03H.04z"/></g><g clip-path="url(#d)"><path fill="url(#e)" d="M.18 53.06h56.88v30.36H.18z"/></g><path d="M57.27 22.77H0v28.26c0 .37 0 .72.06 1v.29c0 .42.05.7.05.7h56.94v-.19c.09-1 .18-3.13.19-3.4V22.77z" fill="#00427a"/><path d="M12.9 38.64c2.54 0 4.13-.79 4.89-2.4a6.85 6.85 0 0 0 .53-2.88v-6.63c0-.75 0-1.25.68-1.29h.13v-.54h-3.79v.54h.12c.7.07.7.57.7 1.3V33a5.43 5.43 0 0 1-.83 3.45 2.87 2.87 0 0 1-2.43 1.09 2.86 2.86 0 0 1-2.43-1.09A5.42 5.42 0 0 1 9.61 33v-6.25c0-.73 0-1.23.7-1.3h.12v-.55H6.65v.54h.13c.68 0 .68.54.68 1.29v6.63A6.86 6.86 0 0 0 8 36.23c.75 1.62 2.35 2.4 4.89 2.4zM24 26.62a7.41 7.41 0 0 0-1.77 5.1A7.33 7.33 0 0 0 24 37c1.1 1.1 2.88 1.66 5.28 1.66a10.16 10.16 0 0 0 4.26-.93h.06l.18-2.56h-.55v.09c-.43 1.39-1.48 2.25-4 2.25-4.28 0-4.61-4.43-4.61-5.79 0-1.79.45-6 4.65-6 2.1 0 3.57.6 3.84 1.83v.1h.5V25.4h-.08a10.33 10.33 0 0 0-4.1-.76 7.2 7.2 0 0 0-5.47 2m24.9-.05c-1.21-1.14-2.9-1.68-5.31-1.7H37.5v.52h.12a1.23 1.23 0 0 1 1.18 1.39v9.64a1.17 1.17 0 0 1-1.19 1.29h-.11v.6h5.67a8.36 8.36 0 0 0 4.92-1.24c1.16-.8 2.53-2.44 2.53-5.71a6.49 6.49 0 0 0-1.76-4.8M42.8 37.24c-1.62 0-1.8-.24-1.8-1.59v-8.73c0-.84 0-1 2.08-1 3.54.07 5.18 1.82 5.18 5.5 0 5.08-2.73 5.76-5.41 5.76m-28.7 4.48A4.35 4.35 0 0 0 11.5 41H9.11v5.58h2.52a4 4 0 0 0 2.51-.69 2.45 2.45 0 0 0 .9-2 2.6 2.6 0 0 0-.88-2.18m-.84 3.6a2.8 2.8 0 0 1-1.7.45H10.2v-3.9h1.21a3 3 0 0 1 2 .48 1.85 1.85 0 0 1 .53 1.44 1.74 1.74 0 0 1-.58 1.48M22.72 41h-1v3.34a1.44 1.44 0 0 1-.44 1.12 1.81 1.81 0 0 1-1.28.41 1.89 1.89 0 0 1-1.3-.4 1.42 1.42 0 0 1-.44-1.12V41h-1.03v3.34a2.22 2.22 0 0 0 .77 1.73 3.16 3.16 0 0 0 2.13.64 3 3 0 0 0 2-.63 2.19 2.19 0 0 0 .77-1.76V41zm7.22 3a1.77 1.77 0 0 0-.6-.32 1.49 1.49 0 0 0 .47-.28 1.17 1.17 0 0 0 .35-.89 1.27 1.27 0 0 0-.55-1.12 3.08 3.08 0 0 0-1.72-.39H25v5.58h3a3 3 0 0 0 1.71-.42 1.4 1.4 0 0 0 .62-1.2 1.23 1.23 0 0 0-.44-1m-3.81-2.11h1.77a1.85 1.85 0 0 1 .93.18.66.66 0 0 1 0 1 1.37 1.37 0 0 1-.77.18h-2zm2.82 3.65a1.78 1.78 0 0 1-.95.2h-1.82v-1.6h1.82a1.8 1.8 0 0 1 1 .22.68.68 0 0 1 .29.6.65.65 0 0 1-.29.58m4.95-4.51h-.95v5.58h4.37v-.87h-3.29v-4.71h-.13zm6.19 0h-.95v5.58h1.08v-5.58h-.13zM48 41h-1v4.32L43.74 41h-1.32v5.58h1.08v-4.33l3.33 4.32h1.33V41z" fill="#fff"/><path d="M39.1 13.71h-.13l-1 7.53h12.66l-.04-.49H38.5l.6-7.04z"/><path d="M47.85 10.2v1.35h-2.2V10.2a.27.27 0 0 0-.28-.27h-1.65a.27.27 0 0 0-.27.27v1.35h-2.2V10.2c0-.17-.07-.28-.23-.28h-1.7a.27.27 0 0 0-.27.27v1.35h-.82a.27.27 0 0 0-.28.27v.54a.27.27 0 0 0 .28.27h.27v.81a.27.27 0 0 0 .27.27h.33l-.6 7h12.09l-.61-7h.33a.27.27 0 0 0 .28-.27v-.81h.27a.27.27 0 0 0 .27-.27v-.54a.27.27 0 0 0-.27-.27H50V10.2a.27.27 0 0 0-.28-.27h-1.58c-.27 0-.3.13-.3.27m-4.4 8.33v-2.7a1.1 1.1 0 0 1 2.2 0v2.7zM48.27 7.3a1.15 1.15 0 0 1 0-1.25 2.37 2.37 0 0 0-1.36.76 2.69 2.69 0 0 0-.74-1.66 1.45 1.45 0 0 1 .07-2.21 4 4 0 0 0-3 4.5c-.09-.21-.27-.39-.41-.63a1.49 1.49 0 0 1 0-1.72c-2.2 1.18-2.92 3.14-1.75 4.18a1.45 1.45 0 0 0 1 .41 1.63 1.63 0 0 0 1.27-2A2 2 0 0 0 45.23 9a2.06 2.06 0 0 0 1.34-1c-.06.55.39 1.59 1.43 1.21a1.26 1.26 0 0 0 .27-2M42 8.89a.69.69 0 0 1-.48-1.07 1.32 1.32 0 0 0 .36-1.25 5.25 5.25 0 0 1 .56 1c.21.53.21 1.29-.45 1.35M45 8.08c-1.29-.14-.71-2.86.18-3.32a2.49 2.49 0 0 0 .11 1.55c.49.94.39 1.69-.29 1.78m2.61.48c-.44-.05-.56-1.09.06-1.55a1 1 0 0 0 0 .68c.26.5.13.85-.1.88" fill="#fff"/><path d="M21.94 14.58h-.12l-.89 6.66h11.21l-.04-.44H21.4l.54-6.22z"/><path d="M29.67 11.47v1.2h-1.94v-1.2a.24.24 0 0 0-.24-.24H26a.24.24 0 0 0-.24.24v1.2h-1.93v-1.2c0-.15-.06-.25-.2-.25h-1.5a.24.24 0 0 0-.24.24v1.2h-.73a.24.24 0 0 0-.24.24v.48a.24.24 0 0 0 .24.24h.24v.72a.24.24 0 0 0 .24.24h.29l-.53 6.22h10.7l-.54-6.22h.29a.24.24 0 0 0 .24-.24v-.72h.24a.24.24 0 0 0 .24-.24v-.48a.24.24 0 0 0-.24-.24h-.73v-1.2a.24.24 0 0 0-.24-.24h-1.42c-.24 0-.27.12-.27.24m-3.89 7.37v-2.38a1 1 0 0 1 1.95 0v2.39zm4.4-10.1a1.12 1.12 0 0 1-.05-1.19 2.69 2.69 0 0 0-1.26 1A2.41 2.41 0 0 0 28.22 7a1.32 1.32 0 0 1 .06-2c-2 .55-2.43 1.85-2.73 3.37a4.83 4.83 0 0 0-.35-.66 1.13 1.13 0 0 1 0-1.09c-1.94 1-2.47 2.83-1.54 3.9a1.07 1.07 0 0 0 .93.37 1.27 1.27 0 0 0 1.1-1.61 1.67 1.67 0 0 0 1.68 1.09 1.82 1.82 0 0 0 1.19-.85c-.05.48.42 1.29 1.18 1.1s1.1-.91.46-1.94m-5.64 1.35a.56.56 0 0 1-.39-.86 1.07 1.07 0 0 0 .29-1 4.24 4.24 0 0 1 .46.78c.17.43.17 1-.36 1.09m2.66-.45c-1.1-.09-.85-2.17 0-3A2.52 2.52 0 0 0 27.5 8c.41.66.41 1.64-.29 1.66m2.38.26c-.41 0-.52-1 .05-1.43a.94.94 0 0 0 0 .62c.24.46.12.78-.09.81" fill="#fff"/><path d="M7.44 16.16h-.09l-.68 5.08h8.55l-.03-.33H7.03l.41-4.75z"/><path d="M13.33 13.79v.91h-1.48v-.91a.18.18 0 0 0-.18-.18h-1.12a.18.18 0 0 0-.18.18v.91H8.89v-.9c0-.12 0-.19-.16-.19H7.59a.18.18 0 0 0-.19.18v.91h-.56a.18.18 0 0 0-.18.18v.36a.18.18 0 0 0 .18.18H7V16a.18.18 0 0 0 .18.18h.22L7 20.91h8.15l-.41-4.74H15a.18.18 0 0 0 .19-.18v-.55h.18a.18.18 0 0 0 .18-.18v-.36a.18.18 0 0 0-.18-.18h-.56v-.91a.19.19 0 0 0-.19-.18h-1.08c-.18 0-.2.09-.2.18m-3 5.62v-1.84a.74.74 0 0 1 1.48 0v1.82zm3.37-7.75a.86.86 0 0 1 0-1 1.78 1.78 0 0 0-1 .81 1.9 1.9 0 0 0-.46-1.15 1 1 0 0 1 0-1.49 2.6 2.6 0 0 0-2.09 2.76c-.06-.14-.15-.2-.21-.38a1.32 1.32 0 0 1 .08-1.2c-1.86.84-2.16 2.32-1.37 3a1 1 0 0 0 .8.28 1 1 0 0 0 .79-1.28 1.35 1.35 0 0 0 1.3.9.91.91 0 0 0 .9-.64c0 .37.66 1.23 1.25.58a1 1 0 0 0 0-1.25m-4.36 1a.43.43 0 0 1-.3-.66.82.82 0 0 0 .23-.78 3.19 3.19 0 0 1 .35.6c.13.33.13.8-.28.84m2.09-.62c-.77-.08-.43-1.71.11-2a1.49 1.49 0 0 0 .07.92c.29.57.23 1-.17 1.06m1.82.48c-.32 0-.41-.79 0-1.13a.74.74 0 0 0 0 .49c.19.36.09.61-.07.64" fill="#fff"/><path d="M30 79.92c-9.46-5.47-14.27-13.22-13.17-24.67l-.42-.32c-1.54 11.69 4 19.94 13.4 25.4z"/><g clip-path="url(#f)"><path transform="rotate(-45 21.498 107.885)" fill="url(#g)" d="M37.19 66.6h27.98v27.98H37.19z"/></g><path d="M40.66 54.75a14 14 0 0 0-11.83-.88c-4.84 1.53-8.94 2-12.55-1.29-.07.16-.14.32-.2.49 3.61 3.27 7.53 2.64 12.43 1.3s7.6-1.6 12 .69z"/><g clip-path="url(#h)"><path fill="url(#a)" d="M16.28 49.23h24.99v6.62H16.28z"/></g><path d="M40.39 55.64l-7.54 21.81a21.39 21.39 0 0 1-3.08-1.9l-.23.48a18.93 18.93 0 0 0 3.54 2.08l7.55-22.36-.24-.11"/><g clip-path="url(#i)"><path fill="url(#j)" d="M29.77 55.12h10.62v22.33H29.77z"/></g><path d="M22.65 57h-.43l6.32 10.78.25-.37z"/><path d="M29.69 66l-5.45-9.27a13.15 13.15 0 0 1-1.6.22l6.13 10.44z" fill="#fff"/><path d="M26.23 56.25l-.37.12 4.8 8.21.24-.37z"/><path d="M31.81 62.83l-4.14-7c-.49.18-1 .33-1.4.46l4.67 8z" fill="#fff"/><path d="M29.54 55.09l-.35.13 3.58 6.16L33 61z"/><path d="M33.93 59.62l-3-5-.37.13-.86.3-.18.07L33 61z" fill="#fff"/><path d="M32.94 54.07l-.43.09 2.37 4 .25-.38z"/><path d="M36 56.41l-1.52-2.58-.46.06h-.46l-.61.11h-.06l2.19 3.72z" fill="#fff"/><path d="M38.54 54.95L28.43 74.31a12.68 12.68 0 0 1-2.27-2.91l-.26.39a13.61 13.61 0 0 0 2.64 3.3L38.77 55l-.24-.08"/><g clip-path="url(#k)"><path fill="url(#l)" d="M26.16 54.66h12.38v19.65H26.16z"/></g></svg>